:SAMPLES-PER-SECOND 30
:FULLY-SPECIFIED
:DEGREES
1050
root  -36.6099 38.6345 6.82154 166.958 69.1479 173.615
RightUpLeg  21.7516 -5.57349 0.848591
RightLeg  13.9678 21.2406 2.91561
RightFoot  -18.5457 -0.75749 -10.0262
RightToes  2.32829e-010 0 -3.6325e-017
Spine  7.37973 0.520172 1.95836
Spine1  19.804 1.68386 -2.20772
HEad  -28.9528 19.1 23.0137
LeftShoulder1  -0.967708 6.08726 -31.2841
LeftArm  -16.0059 12.7512 -25.4712
LeftForeArm  100.821 -78.7997 -110.284
LeftHand  -0.0409136 1.76729 1.01972
RightShoulder  -0.786108 -5.64696 30.0198
RightArm  -3.47975 -1.7986 42.9603
RightForeArm  87.039 78.4977 107.219
RightHand  -0.181754 -0.105136 -3.99953
LeftUpLeg  -16.7434 -0.858401 -6.68365
LeftLeg  6.56252 4.9919 -0.324184
LeftFoot  -1.77039 0.0281576 -0.336799
LeftToes  -3.54706e-010 1.16038e-010 5.28031e-012
1051
root  -35.0405 38.3664 6.41783 164.954 71.9689 171.771
RightUpLeg  23.6128 -3.04871 0.397473
RightLeg  15.9141 21.4706 4.72283
RightFoot  -18.6168 -0.708024 -9.15983
RightToes  2.32829e-010 0 -3.6325e-017
Spine  6.18367 0.9407 1.0673
Spine1  19.9466 2.33837 -2.98719
HEad  -27.9056 19.395 23.9924
LeftShoulder1  -0.984748 6.16079 -30.8857
LeftArm  -14.8772 12.5943 -24.679
LeftForeArm  101.941 -78.6505 -111.949
LeftHand  -0.0362204 2.05516 0.899341
RightShoulder  -0.888237 -5.87709 30.8215
RightArm  -2.57151 -2.7237 41.0462
RightForeArm  86.3903 78.3917 107.947
RightHand  -0.202216 0.458495 -4.07454
LeftUpLeg  -17.0238 0.196507 -7.43188
LeftLeg  10.9141 4.64748 0.524271
LeftFoot  2.72708 -0.744444 5.67726
LeftToes  -3.54706e-010 1.16038e-010 5.28031e-012
1052
root  -33.4369 38.1133 6.02027 160.366 73.3395 168.056
RightUpLeg  25.1154 -1.19302 -1.31032
RightLeg  20.7205 22.1524 8.6018
RightFoot  -17.4146 -0.507614 -7.55605
RightToes  2.32829e-010 0 -3.6325e-017
Spine  6.56303 0.993855 -1.46198
Spine1  19.0187 2.04594 -2.55367
HEad  -26.7083 19.6235 24.395
LeftShoulder1  -1.0072 6.25816 -30.3854
LeftArm  -13.7712 13.1754 -24.4975
LeftForeArm  102.301 -78.5675 -112.738
LeftHand  -0.0270848 1.77355 0.543339
RightShoulder  -0.898907 -5.88595 31.1252
RightArm  -1.66303 -4.06811 39.2847
RightForeArm  85.2931 78.3396 107.986
RightHand  -0.23038 1.0862 -4.27415
LeftUpLeg  -16.5881 0.875265 -8.35618
LeftLeg  15.6364 5.06179 1.64352
LeftFoot  8.39265 -1.60616 9.06109
LeftToes  -3.54706e-010 1.16038e-010 5.28031e-012
1053
root  -31.9162 37.89 5.65602 155.342 73.6621 163.511
RightUpLeg  23.3482 -3.33583 -5.62652
RightLeg  31.4449 25.5834 15.8125
RightFoot  -13.5342 -0.181775 -2.79122
RightToes  2.32829e-010 0 -3.6325e-017
Spine  7.23318 0.726445 -4.69292
Spine1  17.7342 1.11833 -1.6046
HEad  -24.9944 20.327 24.8782
LeftShoulder1  -1.03999 6.35956 -30.2202
LeftArm  -12.9554 13.7256 -24.8724
LeftForeArm  102.186 -78.7284 -111.406
LeftHand  -0.0122013 2.22613 0.00931375
RightShoulder  -0.906633 -5.88434 31.4538
RightArm  -0.726793 -5.53011 37.9852
RightForeArm  84.0863 78.4147 106.77
RightHand  -0.217508 1.68012 -3.74379
LeftUpLeg  -16.9822 2.24207 -9.57243
LeftLeg  22.6626 4.52375 2.43672
LeftFoot  4.32128 -1.40374 9.98894
LeftToes  -3.54706e-010 1.16038e-010 5.28031e-012
1054
root  -30.6328 37.8046 5.31132 149.531 74.8773 157.732
RightUpLeg  17.9859 -2.86264 -8.74456
RightLeg  44.5114 24.9974 23.7681
RightFoot  -5.97031 -0.52065 8.8038
RightToes  2.32829e-010 0 -3.6325e-017
Spine  7.59828 0.908929 -6.25215
Spine1  17.538 1.17099 -2.88097
HEad  -23.9629 20.7271 26.0121
LeftShoulder1  -0.903438 6.03487 -29.51
LeftArm  -12.2806 13.7006 -25.8364
LeftForeArm  99.0863 -78.9511 -108.233
LeftHand  -0.0337854 2.23439 0.821417
RightShoulder  -1.00306 -6.08833 32.2174
RightArm  -0.279152 -6.24438 36.5887
RightForeArm  81.9209 78.486 105.118
RightHand  -0.23161 1.00397 -4.32443
LeftUpLeg  -16.3776 3.92529 -10.3035
LeftLeg  26.1959 4.93094 2.9902
LeftFoot  0.840437 -1.1384 10.572
LeftToes  -3.54706e-010 1.16038e-010 5.28031e-012
1055
root  -29.5821 37.7165 4.96849 136.898 76.8021 144.967
RightUpLeg  10.0652 0.863305 -11.1979
RightLeg  56.6657 19.5454 28.4278
RightFoot  2.93514 -2.39991 19.575
RightToes  2.32829e-010 0 -3.6325e-017
Spine  8.73438 1.5729 -7.94667
Spine1  17.0884 1.77593 -5.00807
HEad  -23.5006 21.4415 25.6177
LeftShoulder1  -0.842226 5.89279 -29.0696
LeftArm  -12.0176 13.6158 -26.2953
LeftForeArm  98.6486 -79.0046 -107.539
LeftHand  -0.0215467 2.16155 0.3537
RightShoulder  -1.00798 -6.08813 32.4009
RightArm  -0.279908 -6.4882 36.2598
RightForeArm  81.5657 78.4686 105.139
RightHand  -0.228121 1.45392 -4.02764
LeftUpLeg  -15.4469 5.77995 -11.7831
LeftLeg  28.2241 6.35121 4.04295
LeftFoot  -2.13463 -0.815046 10.2324
LeftToes  -3.54706e-010 1.16038e-010 5.28031e-012
1056
root  -28.5003 37.7892 4.64114 126.297 77.3074 135.131
RightUpLeg  3.81062 2.79952 -13.1278
RightLeg  64.1543 13.3302 27.0144
RightFoot  7.91802 -3.42453 20.2465
RightToes  2.32829e-010 0 -3.6325e-017
Spine  10.8148 1.45768 -9.67672
Spine1  16.1368 1.30433 -6.08428
HEad  -22.6603 22.6837 25.5273
LeftShoulder1  -0.819897 5.85282 -28.7071
LeftArm  -12.188 13.5442 -26.7463
LeftForeArm  97.2436 -79.1515 -105.436
LeftHand  -0.0195669 2.3298 0.237773
RightShoulder  -1.01904 -6.09278 32.752
RightArm  -0.00109975 -6.07965 36.2377
RightForeArm  81.5878 78.4291 105.558
RightHand  -0.192013 -0.528265 -4.58332
LeftUpLeg  -12.6217 7.05425 -12.821
LeftLeg  28.4594 7.15207 4.55907
LeftFoot  -4.46993 -0.535444 9.35332
LeftToes  -3.54706e-010 1.16038e-010 5.28031e-012
1057
root  -27.2597 38.1386 4.32254 123.193 78.5631 132.598
RightUpLeg  -1.97379 3.42262 -12.7763
RightLeg  67.8182 8.08636 20.4173
RightFoot  4.20678 -1.95513 14.5197
RightToes  2.32829e-010 0 -3.6325e-017
Spine  11.4683 1.0283 -9.59678
Spine1  15.724 0.718647 -5.92094
HEad  -21.5271 23.9368 25.6644
LeftShoulder1  -0.695832 5.53006 -28.1226
LeftArm  -12.2263 13.4953 -27.8609
LeftForeArm  93.0228 -79.3639 -100.856
LeftHand  -0.0385716 2.03332 0.972265
RightShoulder  -1.01811 -6.07545 32.9745
RightArm  0.287196 -5.96621 35.8373
RightForeArm  79.5902 78.4781 104.147
RightHand  -0.177419 -1.63889 -5.25002
LeftUpLeg  -8.91301 8.84072 -11.7654
LeftLeg  26.81 6.84814 4.09456
LeftFoot  -6.14881 -0.361032 8.775
LeftToes  -3.54706e-010 1.16038e-010 5.28031e-012
1058
root  -25.9974 38.5313 3.99297 123.534 79.667 132.553
RightUpLeg  -7.92471 3.22652 -12.0054
RightLeg  68.1512 5.14953 13.385
RightFoot  3.13487 -1.23655 9.90645
RightToes  2.32829e-010 0 -3.6325e-017
Spine  10.6626 0.358142 -8.95662
Spine1  15.8154 0.226564 -5.84668
HEad  -20.7332 24.1355 25.7846
LeftShoulder1  -0.547331 5.13284 -27.4101
LeftArm  -12.2847 13.1339 -29.352
LeftForeArm  88.7937 -79.5137 -96.1181
LeftHand  -0.0252466 2.60415 0.48592
RightShoulder  -1.03856 -6.10629 33.2835
RightArm  0.164254 -6.50781 35.169
RightForeArm  79.4873 78.482 104.054
RightHand  -0.21532 -0.231138 -4.91516
LeftUpLeg  -5.75591 9.24175 -10.5879
LeftLeg  24.3027 7.10461 3.4623
LeftFoot  -7.21945 -0.258966 8.38774
LeftToes  -3.54706e-010 1.16038e-010 5.28031e-012
1059
root  -24.7499 38.867 3.68519 126.84 80.5998 135.482
RightUpLeg  -12.718 2.78678 -10.6372
RightLeg  65.2782 3.73415 8.27712
RightFoot  2.24191 -0.750815 6.41363
RightToes  2.32829e-010 0 -3.6325e-017
Spine  10.6469 -0.310787 -8.37432
Spine1  14.8918 -0.529835 -5.24502
HEad  -19.841 24.1975 26.5082
LeftShoulder1  -0.524405 5.08732 -26.8838
LeftArm  -11.9764 12.7138 -30.6104
LeftForeArm  85.8413 -79.594 -92.4791
LeftHand  -0.0205182 2.60183 0.234257
RightShoulder  -1.08007 -6.19735 33.4839
RightArm  -0.180575 -7.58064 34.0945
RightForeArm  81.4795 78.3839 105.976
RightHand  -0.241061 1.36518 -4.25933
LeftUpLeg  -2.5769 8.5705 -9.08708
LeftLeg  21.7158 7.75229 2.43844
LeftFoot  -8.14331 -0.173641 7.97433
LeftToes  -3.54706e-010 1.16038e-010 5.28031e-012
1060
root  -23.5513 39.1258 3.3967 133.127 80.574 142.142
RightUpLeg  -15.2359 1.90221 -9.55681
RightLeg  59.102 3.73992 6.21402
RightFoot  0.80776 -0.446939 4.27376
RightToes  2.32829e-010 0 -3.6325e-017
Spine  11.6093 -1.11907 -8.33748
Spine1  13.9389 -1.6736 -4.09591
HEad  -19.1907 24.1217 26.9055
LeftShoulder1  -0.435525 4.84822 -26.1612
LeftArm  -11.8565 12.4254 -32.0048
LeftForeArm  85.1353 -79.6263 -91.1947
LeftHand  -0.0168412 2.55444 0.0712201
RightShoulder  -0.999299 -6.00447 33.3286
RightArm  -1.05291 -8.91209 33.6274
RightForeArm  84.8642 78.2435 108.679
RightHand  -0.19123 0.308899 -3.95165
LeftUpLeg  1.37345 7.34542 -8.10689
LeftLeg  18.8605 8.33883 1.59069
LeftFoot  -8.79192 -0.118417 7.69095
LeftToes  -3.54706e-010 1.16038e-010 5.28031e-012
1061
root  -22.3073 39.2641 3.12548 137.123 80.9394 146.094
RightUpLeg  -16.9062 1.07219 -8.51312
RightLeg  49.951 5.08495 6.11139
RightFoot  -0.764907 -0.417508 4.45615
RightToes  2.32829e-010 0 -3.6325e-017
Spine  11.6674 -1.66913 -7.89963
Spine1  13.5714 -2.26002 -3.48581
HEad  -18.4704 24.1216 27.8261
LeftShoulder1  -0.362436 4.64851 -25.3988
LeftArm  -11.5358 11.8766 -33.2143
LeftForeArm  83.9698 -79.6384 -89.8087
LeftHand  -0.0147826 2.54491 0.250256
RightShoulder  -1.07723 -6.16683 33.8105
RightArm  -1.66617 -9.95775 32.8116
RightForeArm  87.8966 77.9674 112.143
RightHand  -0.186483 0.301941 -3.84369
LeftUpLeg  4.63311 7.00184 -7.15019
LeftLeg  16.5585 8.46578 0.914397
LeftFoot  -9.83101 -0.0380169 7.36361
LeftToes  -3.54706e-010 1.16038e-010 5.28031e-012
1062
root  -21.0304 39.2673 2.86412 138.922 81.4437 147.473
RightUpLeg  -17.7947 0.0331294 -7.43552
RightLeg  38.4671 6.28638 5.09427
RightFoot  -1.70047 -0.41207 4.74241
RightToes  2.32829e-010 0 -3.6325e-017
Spine  10.9407 -2.04242 -7.34175
Spine1  13.7186 -2.44681 -3.33258
HEad  -18.0111 24.3845 28.9137
LeftShoulder1  -0.219214 4.20798 -24.8241
LeftArm  -11.5328 11.3948 -33.9425
LeftForeArm  83.7778 -79.6649 -88.9925
LeftHand  -0.014667 2.23545 0.086699
RightShoulder  -1.18481 -6.38403 34.5222
RightArm  -2.25472 -10.2668 32.0088
RightForeArm  89.2949 77.8267 113.664
RightHand  -0.22 0.710185 -4.27052
LeftUpLeg  7.0997 7.18377 -6.52459
LeftLeg  15.1744 8.46864 0.586916
LeftFoot  -11.3623 0.069228 6.96572
LeftToes  -3.54706e-010 1.16038e-010 5.28031e-012
